<svg xmlns="http://www.w3.org/2000/svg" version="1.1" xmlns:xlink="http://www.w3.org/1999/xlink" xmlns:svgjs="http://svgjs.dev/svgjs" width="1920" height="1080" preserveAspectRatio="none" viewBox="0 0 1920 1080">
    <g mask="url(&quot;#SvgjsMask1021&quot;)" fill="none">
        <rect width="1920" height="1080" x="0" y="0" fill="rgba(0, 1, 1, 1)"></rect>
        <path d="M0 200.32C110.22 109.69 154.43 29.67 270 48C374.09 64.51 346.22 167.53 439.32 270C481.22 316.12 490.4 345.19 540 345.19C587.15 345.19 589.95 311.44 632.81 270C724.95 180.9 703.22 147.04 810 84.1C926.81 15.25 944.27 41.66 1080 6.43C1106.27 -0.39 1106.85 0.65 1134 0C1241.85 -2.57 1242 0 1350 0C1485 0 1485 0 1620 0C1755 0 1755 0 1890 0C1998.66 0 2013.62 -27.76 2107.32 0C2148.62 12.24 2151.17 34.75 2160 80C2177.51 169.75 2160 175 2160 270C2160 405 2160 405 2160 540C2160 675 2160 675 2160 810C2160 945 2227.5 1012.5 2160 1080C2092.5 1147.5 2025 1080 1890 1080C1755 1080 1755 1080 1620 1080C1485 1080 1485 1080 1350 1080C1260 1080 1236.91 1119.54 1170 1080C1101.91 1039.76 1129.46 997.29 1080 920.45C1042.57 862.29 1042.23 861.69 996.21 810C907.23 710.04 887.98 617.14 810 617.14C747.5 617.14 727.69 708.01 715.26 810C699.48 939.44 802.72 1004.29 753.58 1080C715.09 1139.29 646.79 1080 540 1080C428.21 1080 391.06 1128.3 316.41 1080C256.06 1040.95 304.6 987.31 270 905.29C247.65 852.31 250.73 837 202.5 810C115.73 761.43 50.14 820.99 0 754.14C-51.11 685.99 0 647.07 0 540C0 405 0 405 0 270C0 235.16 -24.78 220.69 0 200.32" stroke="rgba(156, 52, 219, 0.05)" stroke-width="2"></path>
        <path d="M1890 262.06C1884.4 262.06 1880.55 263.52 1879.2 270C1851.62 402.49 1828.97 406.76 1832.14 540C1834.37 633.81 1858.13 724.09 1890 724.09C1922.59 724.09 1958.24 634.64 1961.05 540C1964.99 407.6 1937.12 401.51 1903.5 270C1901.59 262.54 1896.55 262.06 1890 262.06" stroke="rgba(156, 52, 219, 0.05)" stroke-width="2"></path>
        <path d="M270 492C255.05 492 241.95 513.53 241.95 540C241.95 614.67 254.73 694.29 270 694.29C285.37 694.29 303.23 613.83 303.23 540C303.23 512.69 285.69 492 270 492" stroke="rgba(156, 52, 219, 0.05)" stroke-width="2"></path>
        <path d="M0 983.57C40.18 983.57 128.57 1053.21 128.57 1080C128.57 1101.43 36.73 1107.55 0 1080C-27.55 1059.34 -24.11 983.57 0 983.57" stroke="rgba(156, 52, 219, 0.05)" stroke-width="2"></path>
        <path d="M158.28 270C216.5 238.25 220.44 198 270 198C303.76 198 324.92 234 324.92 270C324.92 306 294.15 303.78 270 342C208.84 438.78 225.4 451.89 154.29 540C90.4 619.16 46.4 676.55 0 676.55C-30.75 676.55 0 608.28 0 540C0 442.63 -41.65 416.31 0 345.25C37.49 281.31 81.5 311.87 158.28 270" stroke="rgba(156, 52, 219, 0.05)" stroke-width="2"></path>
        <path d="M738.28 270C738.28 227.45 762.68 208.99 810 194.75C933.54 157.56 957.09 143.23 1080 167.14C1150.47 180.85 1134.66 223.47 1196.76 270C1269.66 324.63 1267.31 367.77 1350 369.47C1478.93 372.12 1523.73 236.15 1620 278.71C1716.58 321.41 1735.71 414.7 1735.71 540C1735.71 629.72 1702.28 661.63 1620 708.75C1509.42 772.08 1485.23 759.6 1350 760.91C1215.23 762.22 1196.57 772.5 1080 714C976.46 662.04 989.68 631.44 909.78 540C854.68 476.94 854.88 475.66 810 405C769.13 340.66 738.28 332.57 738.28 270" stroke="rgba(156, 52, 219, 0.05)" stroke-width="2"></path>
        <path d="M1890 63.53C1858.21 63.53 1822.5 18.38 1822.5 0C1822.5 -13.38 1856.25 0 1890 0C1916.34 0 1942.68 -12.38 1942.68 0C1942.68 19.39 1918.3 63.53 1890 63.53" stroke="rgba(156, 52, 219, 0.05)" stroke-width="2"></path>
        <path d="M407.08 540C427.36 466.4 469.89 430.63 540 430.63C624.51 430.63 704.6 461.71 716.33 540C733.02 651.4 613.25 670.39 596.84 810C581.51 940.39 673.01 984.2 652.84 1080C644.59 1119.2 596.42 1080 540 1080C480.94 1080 437.77 1121.05 421.88 1080C385.51 986.05 439.17 944.71 435.48 810C431.77 674.71 375.1 656.08 407.08 540" stroke="rgba(156, 52, 219, 0.05)" stroke-width="2"></path>
        <path d="M2079.47 540C2079.47 444.59 2139.11 340.43 2160 340.43C2179.37 340.43 2160 440.22 2160 540C2160 598.85 2178.21 657.69 2160 657.69C2137.94 657.69 2079.47 603.22 2079.47 540" stroke="rgba(156, 52, 219, 0.05)" stroke-width="2"></path>
        <path d="M1343.08 1080C1343.08 1067.75 1337.61 1058.45 1350 1050C1476.07 963.95 1484.08 893.16 1620 891C1754.08 888.87 1750.75 976.45 1890 1041.43C1953.25 1070.95 2025 1070.17 2025 1080C2025 1089.45 1957.5 1080 1890 1080C1755 1080 1755 1080 1620 1080C1485 1080 1485 1080 1350 1080C1346.54 1080 1343.08 1082.75 1343.08 1080" stroke="rgba(156, 52, 219, 0.05)" stroke-width="2"></path>
        <path d="M0 455.9C18.67 455.9 66.62 500.89 66.62 540C66.62 572.43 20.03 598.97 0 598.97C-13.28 598.97 0 569.49 0 540C0 497.95 -14.64 455.9 0 455.9" stroke="rgba(156, 52, 219, 0.05)" stroke-width="2"></path>
        <path d="M510.92 540C510.92 523.67 524.66 516.08 540 516.08C558.49 516.08 578.57 521.78 578.57 540C578.57 580.99 557.18 634.5 540 634.5C523.36 634.5 510.92 582.88 510.92 540" stroke="rgba(156, 52, 219, 0.05)" stroke-width="2"></path>
        <path d="M1056.52 540C1056.52 501.45 1044.62 463.2 1080 456.92C1191.36 437.15 1214.59 477.98 1350 487.89C1484.59 497.74 1497.04 474.3 1620 496.45C1641.68 500.36 1639.29 519.12 1639.29 540C1639.29 554.96 1636.07 564.38 1620 568.13C1491.43 598.13 1484.85 608.53 1350 607.5C1214.85 606.47 1210.69 594.06 1080 564C1063.95 560.31 1056.52 554.99 1056.52 540" stroke="rgba(156, 52, 219, 0.05)" stroke-width="2"></path>
        <path d="M527.34 1080C527.34 1059.63 533.8 1029.38 540 1029.38C546.18 1029.38 552.09 1059.46 552.09 1080C552.09 1084.77 546.05 1080 540 1080C533.67 1080 527.34 1084.94 527.34 1080" stroke="rgba(156, 52, 219, 0.05)" stroke-width="2"></path>
        <path d="M1508.05 1080C1508.05 1059.05 1563.58 1003.5 1620 1003.5C1678.4 1003.5 1737.69 1059.19 1737.69 1080C1737.69 1097.44 1678.85 1080 1620 1080C1564.03 1080 1508.05 1097.3 1508.05 1080" stroke="rgba(156, 52, 219, 0.05)" stroke-width="2"></path>
    </g>
    <defs>
        <mask id="SvgjsMask1021">
            <rect width="1920" height="1080" fill="#ffffff"></rect>
        </mask>
    </defs>
</svg>